<?xml version="1.0" encoding="UTF-8"?>
<svg id="Layer_1" xmlns="http://www.w3.org/2000/svg" version="1.1" viewBox="0 0 728 90">
  <!-- Generator: Adobe Illustrator 29.8.2, SVG Export Plug-In . SVG Version: 2.1.1 Build 3)  -->
  <defs>
    <style>
      .st0 {
        fill: #fff;
      }

      .st1 {
        fill: #eb2027;
      }
    </style>
  </defs>
  <g>
    <path class="st0" d="M37.58,40.53h10.13l12.25,33.63h-10.74l-1.41-4.8h-10.69l-1.51,4.8h-10.41l12.39-33.63ZM45.73,62.14l-3.01-10.36h-.09l-3.25,10.36h6.36Z"/>
    <path class="st0" d="M97.49,61.15c0,9.2-5.1,13.8-15.31,13.8s-15.35-4.6-15.35-13.8v-20.63h10.36v18.32c0,1.19.04,2.18.12,2.97.08.79.27,1.55.57,2.28.3.74.8,1.33,1.51,1.79.71.46,1.66.68,2.85.68s2.09-.23,2.78-.68c.69-.45,1.18-1.05,1.48-1.79.3-.74.48-1.5.54-2.28.06-.78.09-1.77.09-2.97v-18.32h10.36v20.63Z"/>
    <path class="st0" d="M154.9,49.15h-9.42v-8.62h29.2v8.62h-9.42v25.01h-10.36v-25.01Z"/>
    <path class="st0" d="M183.2,40.53h10.36v11.68h9.7v-11.68h10.36v33.63h-10.36v-13.33h-9.7v13.33h-10.36v-33.63Z"/>
    <path class="st0" d="M223.89,50.28c.82-2.17,1.98-4.03,3.49-5.6,1.51-1.57,3.31-2.79,5.42-3.65,2.1-.86,4.41-1.3,6.92-1.3s4.82.43,6.92,1.3c2.1.86,3.91,2.08,5.42,3.65,1.51,1.57,2.67,3.44,3.49,5.6.82,2.17,1.22,4.52,1.22,7.06s-.41,4.9-1.22,7.06c-.82,2.17-1.98,4.03-3.49,5.6-1.51,1.57-3.31,2.79-5.42,3.65-2.1.86-4.41,1.3-6.92,1.3s-4.82-.43-6.92-1.3c-2.1-.86-3.91-2.08-5.42-3.65-1.51-1.57-2.67-3.44-3.49-5.6-.82-2.17-1.22-4.52-1.22-7.06s.41-4.9,1.22-7.06ZM233.66,61.81c.42,1.22.97,2.18,1.65,2.87.67.69,1.39,1.18,2.14,1.46.75.28,1.51.42,2.26.42s1.51-.14,2.26-.42c.75-.28,1.47-.77,2.14-1.46.67-.69,1.22-1.65,1.65-2.87.42-1.22.64-2.72.64-4.47s-.21-3.25-.64-4.47c-.42-1.22-.97-2.18-1.65-2.87-.68-.69-1.39-1.18-2.14-1.46-.75-.28-1.51-.42-2.26-.42s-1.51.14-2.26.42c-.75.28-1.47.77-2.14,1.46-.68.69-1.22,1.65-1.65,2.87-.42,1.22-.64,2.72-.64,4.47s.21,3.25.64,4.47Z"/>
  </g>
  <g>
    <polygon class="st0" points="139.31 40.53 139.32 40.53 127.65 40.53 122.17 48.67 116.68 40.52 105.02 40.52 105.02 40.53 105.02 40.53 116.33 57.34 105.02 74.15 116.68 74.15 122.17 66.01 122.17 66.01 122.17 66.01 127.65 74.15 139.32 74.15 128 57.34 139.32 40.53 139.31 40.53"/>
    <polygon class="st1" points="116.68 40.52 122.16 32.38 127.65 40.53 139.32 40.53 128 23.71 122.16 15.05 116.33 23.71 105.02 40.52 116.68 40.52"/>
  </g>
</svg>